<svg width="17" height="23" viewBox="0 0 17 23" fill="none" xmlns="http://www.w3.org/2000/svg">
<path d="M11.9791 13.4167V0.958333C11.9791 0.704167 12.0801 0.460412 12.2598 0.280689C12.4395 0.100967 12.6833 0 12.9374 0C13.1916 0 13.4353 0.100967 13.6151 0.280689C13.7948 0.460412 13.8958 0.704167 13.8958 0.958333L13.8958 13.4167C13.8958 13.6708 13.7948 13.9146 13.6151 14.0943C13.4353 14.274 13.1916 14.375 12.9374 14.375C12.6833 14.375 12.4395 14.274 12.2598 14.0943C12.0801 13.9146 11.9791 13.6708 11.9791 13.4167ZM11.9791 22.0417V18.2083C11.9791 17.9542 12.0801 17.7104 12.2598 17.5307C12.4395 17.351 12.6833 17.25 12.9374 17.25C13.1916 17.25 13.4353 17.351 13.6151 17.5307C13.7948 17.7104 13.8958 17.9542 13.8958 18.2083V22.0417C13.8958 22.2958 13.7948 22.5396 13.6151 22.7193C13.4353 22.899 13.1916 23 12.9374 23C12.6833 23 12.4395 22.899 12.2598 22.7193C12.0801 22.5396 11.9791 22.2958 11.9791 22.0417Z" fill="#797979"/>
<path d="M9.58341 15.8125C9.58341 15.1491 9.78013 14.5006 10.1487 13.949C10.5173 13.3974 11.0411 12.9675 11.654 12.7137C12.2669 12.4598 12.9413 12.3934 13.5919 12.5228C14.2426 12.6522 14.8402 12.9717 15.3093 13.4407C15.7784 13.9098 16.0979 14.5075 16.2273 15.1581C16.3567 15.8088 16.2903 16.4832 16.0364 17.0961C15.7826 17.709 15.3526 18.2328 14.8011 18.6014C14.2495 18.9699 13.601 19.1667 12.9376 19.1667C12.048 19.1667 11.1949 18.8133 10.5658 18.1843C9.9368 17.5552 9.58341 16.7021 9.58341 15.8125ZM14.3751 15.8125C14.3751 15.5282 14.2908 15.2503 14.1328 15.0139C13.9749 14.7775 13.7504 14.5932 13.4877 14.4844C13.225 14.3756 12.936 14.3472 12.6571 14.4026C12.3783 14.4581 12.1222 14.595 11.9211 14.796C11.7201 14.9971 11.5832 15.2532 11.5277 15.5321C11.4722 15.8109 11.5007 16.0999 11.6095 16.3626C11.7183 16.6253 11.9026 16.8498 12.1389 17.0077C12.3753 17.1657 12.6533 17.25 12.9376 17.25C13.3188 17.25 13.6845 17.0985 13.954 16.829C14.2236 16.5594 14.3751 16.1937 14.3751 15.8125ZM2.39591 22.0417L2.39591 9.58333C2.39591 9.32917 2.49688 9.08541 2.6766 8.90569C2.85632 8.72597 3.10008 8.625 3.35425 8.625C3.60841 8.625 3.85217 8.72597 4.03189 8.90569C4.21161 9.08541 4.31258 9.32917 4.31258 9.58333L4.31258 22.0417C4.31258 22.2958 4.21161 22.5396 4.03189 22.7193C3.85217 22.899 3.60841 23 3.35425 23C3.10008 23 2.85632 22.899 2.6766 22.7193C2.49688 22.5396 2.39591 22.2958 2.39591 22.0417ZM2.39591 4.79167V0.958333C2.39591 0.704167 2.49688 0.460412 2.6766 0.280689C2.85632 0.100967 3.10008 0 3.35425 0C3.60841 0 3.85217 0.100967 4.03189 0.280689C4.21161 0.460412 4.31258 0.704167 4.31258 0.958333V4.79167C4.31258 5.04583 4.21161 5.28959 4.03189 5.46931C3.85217 5.64903 3.60841 5.75 3.35425 5.75C3.10008 5.75 2.85632 5.64903 2.6766 5.46931C2.49688 5.28959 2.39591 5.04583 2.39591 4.79167Z" fill="#797979"/>
<path d="M-8.29697e-05 7.1875C-8.29697e-05 6.52411 0.196636 5.87562 0.565197 5.32403C0.933757 4.77244 1.45761 4.34252 2.0705 4.08866C2.68339 3.83479 3.3578 3.76836 4.00845 3.89778C4.65909 4.02721 5.25675 4.34666 5.72584 4.81575C6.19493 5.28484 6.51438 5.88249 6.6438 6.53314C6.77322 7.18378 6.7068 7.85819 6.45293 8.47109C6.19906 9.08398 5.76915 9.60783 5.21756 9.97639C4.66597 10.3449 4.01748 10.5417 3.35408 10.5417C2.4645 10.5417 1.61136 10.1883 0.982329 9.55926C0.353301 8.93023 -8.29697e-05 8.07708 -8.29697e-05 7.1875ZM4.79158 7.1875C4.79158 6.90319 4.70728 6.62527 4.54932 6.38887C4.39137 6.15247 4.16686 5.96823 3.90419 5.85942C3.64152 5.75062 3.35249 5.72216 3.07364 5.77762C2.79479 5.83309 2.53866 5.97 2.33762 6.17104C2.13658 6.37207 1.99967 6.62821 1.9442 6.90706C1.88874 7.18591 1.91721 7.47494 2.02601 7.73761C2.13481 8.00028 2.31906 8.22478 2.55545 8.38274C2.79185 8.54069 3.06977 8.625 3.35408 8.625C3.73533 8.625 4.10097 8.47355 4.37055 8.20397C4.64013 7.93438 4.79158 7.56875 4.79158 7.1875Z" fill="#797979"/>
</svg>
