<svg width="33" height="21" viewBox="0 0 33 21" fill="none" xmlns="http://www.w3.org/2000/svg">
<g id="Group 19">
<path id="Vector 3" d="M10.4527 5.69852L11.8221 6.79323C12.1183 7.03002 12.2664 7.14841 12.3765 7.19932C12.9471 7.463 13.6166 7.14108 13.767 6.53074C13.796 6.41291 13.796 6.22331 13.796 5.8441H25.0609C26.683 5.8441 27.4941 5.8441 28.1181 6.14949C28.7168 6.44252 29.2009 6.92662 29.494 7.52537C29.7993 8.14938 29.7993 8.96044 29.7993 10.5826V11.5869C29.7993 12.2691 29.7993 12.6102 29.7441 12.8941C29.5106 14.094 28.5723 15.0323 27.3724 15.2658C27.0885 15.321 26.7474 15.321 26.0652 15.321C25.8378 15.321 25.7241 15.321 25.6295 15.3394C25.2295 15.4173 24.9168 15.73 24.8389 16.13C24.8205 16.2246 24.8205 16.3383 24.8205 16.5657V17.4576C24.8205 17.4784 24.8205 17.4888 24.8207 17.4976C24.8302 18.0361 25.2644 18.4704 25.8029 18.4798C25.8117 18.48 25.8221 18.48 25.843 18.48C25.9888 18.48 26.0617 18.48 26.1234 18.4789C29.8928 18.4125 32.9325 15.3728 32.9989 11.6033C33 11.5417 33 11.4688 33 11.3229V10.5826C33 9.74913 33 9.33241 32.9646 8.98148C32.6302 5.67205 30.0131 3.05495 26.7037 2.72058C26.3527 2.68513 25.936 2.68513 25.1026 2.68513H13.796C13.796 2.12898 13.796 1.85091 13.7326 1.68144C13.5472 1.18596 13.008 0.920572 12.5023 1.07594C12.3294 1.12908 12.109 1.29871 11.6683 1.63796L11.6683 1.63797L10.4816 2.55158C9.55124 3.26778 9.08607 3.62588 9.08161 4.11235C9.07716 4.59881 9.53568 4.96538 10.4527 5.69852Z" fill="#232F32" fill-opacity="0.7"/>
<path id="Vector 4" d="M22.5473 15.3015L21.1779 14.2068L21.1779 14.2068C20.8817 13.97 20.7336 13.8516 20.6235 13.8007C20.0529 13.537 19.3834 13.859 19.233 14.4693C19.204 14.5871 19.204 14.7767 19.204 15.1559H7.93912C5.32214 15.1559 3.20066 13.0344 3.20066 10.4175V9.94656C3.20066 7.58965 5.11131 5.679 7.46822 5.679C7.86104 5.679 8.17948 5.36056 8.17948 4.96774V3.10428C8.17948 2.78161 7.9179 2.52003 7.59523 2.52003C3.40049 2.52003 -1.14441e-05 5.92054 -1.14441e-05 10.1153V10.4175C-1.14441e-05 14.7791 3.53579 18.3149 7.89742 18.3149H19.204C19.204 18.871 19.204 19.1491 19.2674 19.3186C19.4528 19.8141 19.992 20.0795 20.4977 19.9241C20.6706 19.871 20.891 19.7013 21.3317 19.3621L22.5184 18.4485C23.4488 17.7322 23.9139 17.3741 23.9184 16.8877C23.9228 16.4012 23.4643 16.0346 22.5473 15.3015Z" fill="#232F32" fill-opacity="0.7"/>
</g>
</svg>
