<svg width="22" height="18" viewBox="0 0 22 18" fill="none" xmlns="http://www.w3.org/2000/svg">
<path id="&#60;Compound Path&#62;" d="M15.762 0.000418349C14.8555 -0.00437817 13.959 0.187895 13.1361 0.563615C12.3132 0.939336 11.5839 1.48931 11 2.17457C10.4199 1.48487 9.69143 0.931798 8.8676 0.555673C8.04378 0.179548 7.1454 -0.0101475 6.23797 0.000418349C4.58356 0.000418349 2.99691 0.64991 1.82706 1.80601C0.657213 2.96211 0 4.53012 0 6.1651C0 11.9995 10.3038 17.6964 10.7215 17.9165C10.804 17.9709 10.9009 18 11 18C11.0991 18 11.196 17.9709 11.2785 17.9165C11.6962 17.6964 22 12.0821 22 6.1651C22 4.53012 21.3428 2.96211 20.1729 1.80601C19.0031 0.64991 17.4164 0.000418349 15.762 0.000418349ZM11 16.8157C9.38481 15.88 1.11392 10.8987 1.11392 6.1651C1.11392 4.82208 1.65378 3.53407 2.61472 2.58442C3.57567 1.63476 4.87899 1.10125 6.23797 1.10125C7.09037 1.0902 7.93155 1.29416 8.68197 1.69385C9.43239 2.09355 10.0673 2.67578 10.5266 3.38549C10.5808 3.45939 10.652 3.51954 10.7343 3.56102C10.8166 3.6025 10.9076 3.62413 11 3.62413C11.0924 3.62413 11.1834 3.6025 11.2657 3.56102C11.348 3.51954 11.4192 3.45939 11.4734 3.38549C12.0778 2.47204 12.9646 1.776 14.0018 1.40108C15.039 1.02616 16.1709 0.99243 17.2291 1.3049C18.2872 1.61738 19.2149 2.25934 19.8739 3.13514C20.5329 4.01094 20.8879 5.07371 20.8861 6.1651C20.8861 10.9537 12.6152 15.9075 11 16.8157Z" fill="black"/>
</svg>
