<svg width="254" height="219" viewBox="0 0 254 219" fill="none" xmlns="http://www.w3.org/2000/svg">
<path d="M32.832 157L29.807 149.52H11.987L8.96199 157H-0.0030127L16.717 118.5H25.682L42.127 157H32.832ZM14.847 142.535H27.002L20.952 127.575L14.847 142.535Z" fill="white"/>
<path d="M67.165 117.135C69.915 117.135 72.335 117.777 74.425 119.06C76.5517 120.307 78.1833 122.085 79.32 124.395C80.4933 126.705 81.08 129.363 81.08 132.37C81.08 135.34 80.5117 137.962 79.375 140.235C78.2383 142.472 76.625 144.213 74.535 145.46C72.4817 146.707 70.08 147.33 67.33 147.33C65.2767 147.33 63.4433 146.945 61.83 146.175C60.2533 145.368 58.915 144.213 57.815 142.71V157.67H49.345V117.41H57.815V121.755C58.8783 120.252 60.1983 119.115 61.775 118.345C63.3883 117.538 65.185 117.135 67.165 117.135ZM65.185 140.29C67.3483 140.29 69.1083 139.538 70.465 138.035C71.8217 136.495 72.5 134.515 72.5 132.095C72.5 129.712 71.8217 127.768 70.465 126.265C69.1083 124.725 67.3483 123.955 65.185 123.955C63.0217 123.955 61.2433 124.725 59.85 126.265C58.4933 127.768 57.815 129.712 57.815 132.095C57.815 134.552 58.4933 136.532 59.85 138.035C61.2433 139.538 63.0217 140.29 65.185 140.29ZM104.763 117.135C107.513 117.135 109.933 117.777 112.023 119.06C114.149 120.307 115.781 122.085 116.918 124.395C118.091 126.705 118.678 129.363 118.678 132.37C118.678 135.34 118.109 137.962 116.973 140.235C115.836 142.472 114.223 144.213 112.133 145.46C110.079 146.707 107.678 147.33 104.928 147.33C102.874 147.33 101.041 146.945 99.4277 146.175C97.851 145.368 96.5127 144.213 95.4127 142.71V157.67H86.9427V117.41H95.4127V121.755C96.476 120.252 97.796 119.115 99.3727 118.345C100.986 117.538 102.783 117.135 104.763 117.135ZM102.783 140.29C104.946 140.29 106.706 139.538 108.063 138.035C109.419 136.495 110.098 134.515 110.098 132.095C110.098 129.712 109.419 127.768 108.063 126.265C106.706 124.725 104.946 123.955 102.783 123.955C100.619 123.955 98.841 124.725 97.4477 126.265C96.091 127.768 95.4127 129.712 95.4127 132.095C95.4127 134.552 96.091 136.532 97.4477 138.035C98.841 139.538 100.619 140.29 102.783 140.29Z" fill="white"/>
<path d="M0 160.518H18.286L33.702 192.416L49.036 160.518H67.322V218H52.316V183.888L39.196 212.342H28.126L15.006 183.888V218H0V160.518Z" fill="white"/>
<path d="M121.971 173.392V218H105.407V211.358C103.876 213.763 101.936 215.595 99.5852 216.852C97.2892 218.109 94.6652 218.738 91.7132 218.738C88.5972 218.738 85.8365 218.055 83.4312 216.688C81.0805 215.267 79.2492 213.271 77.9372 210.702C76.6252 208.133 75.9692 205.126 75.9692 201.682V173.392H92.5332V197.008C92.5332 199.195 93.0798 200.944 94.1732 202.256C95.2665 203.513 96.7152 204.142 98.5192 204.142C100.651 204.087 102.318 203.267 103.521 201.682C104.778 200.097 105.407 198.019 105.407 195.45V173.392H121.971Z" fill="white"/>
<path d="M163.379 188.48C157.311 185.364 152.445 183.806 148.783 183.806C147.744 183.806 146.924 183.997 146.323 184.38C145.721 184.708 145.421 185.227 145.421 185.938C145.421 186.758 145.967 187.441 147.061 187.988C148.209 188.48 150.013 189.054 152.473 189.71C155.753 190.639 158.459 191.569 160.591 192.498C162.777 193.427 164.663 194.849 166.249 196.762C167.889 198.621 168.709 201.026 168.709 203.978C168.709 208.515 166.905 212.123 163.297 214.802C159.743 217.426 155.015 218.738 149.111 218.738C145.175 218.738 141.403 218.219 137.795 217.18C134.241 216.087 131.016 214.501 128.119 212.424L133.203 202.01C135.991 203.814 138.751 205.181 141.485 206.11C144.273 207.039 146.897 207.504 149.357 207.504C150.505 207.504 151.407 207.34 152.063 207.012C152.719 206.629 153.047 206.11 153.047 205.454C153.047 204.634 152.5 203.978 151.407 203.486C150.368 202.939 148.619 202.338 146.159 201.682C142.988 200.807 140.337 199.905 138.205 198.976C136.073 198.047 134.214 196.653 132.629 194.794C131.043 192.935 130.251 190.53 130.251 187.578C130.251 182.986 132 179.351 135.499 176.672C138.997 173.993 143.589 172.654 149.275 172.654C156.108 172.654 162.641 174.458 168.873 178.066L163.379 188.48Z" fill="white"/>
<path d="M175.855 173.392H192.419V218H175.855V173.392Z" fill="white"/>
<path d="M230.239 190.694C229.474 189.273 228.463 188.179 227.205 187.414C226.003 186.649 224.636 186.266 223.105 186.266C220.919 186.266 219.142 187.141 217.775 188.89C216.409 190.639 215.725 192.935 215.725 195.778C215.725 198.675 216.381 201.026 217.693 202.83C219.06 204.579 220.864 205.454 223.105 205.454C226.44 205.454 228.791 203.814 230.157 200.534L243.031 207.012C241.337 210.675 238.658 213.517 234.995 215.54C231.387 217.563 227.123 218.574 222.203 218.574C217.557 218.574 213.484 217.645 209.985 215.786C206.487 213.873 203.781 211.221 201.867 207.832C199.954 204.388 198.997 200.397 198.997 195.86C198.997 191.268 199.954 187.25 201.867 183.806C203.835 180.307 206.569 177.601 210.067 175.688C213.621 173.775 217.721 172.818 222.367 172.818C227.014 172.818 231.114 173.829 234.667 175.852C238.275 177.875 241.036 180.745 242.949 184.462L230.239 190.694Z" fill="white"/>
<path d="M139.85 139.379C139.022 140.109 138.939 141.375 139.699 142.176C144.43 147.161 150.082 151.192 156.35 154.043C163.224 157.171 170.683 158.807 178.236 158.844C185.788 158.881 193.263 157.319 200.168 154.26C207.073 151.201 213.252 146.714 218.299 141.095C223.345 135.476 227.145 128.852 229.448 121.66C231.75 114.467 232.504 106.868 231.658 99.3626C230.813 91.8576 228.388 84.6166 224.543 78.1161C221.038 72.1898 216.424 67.0015 210.961 62.8309C210.084 62.1608 208.834 62.3789 208.197 63.281C207.56 64.1831 207.778 65.4274 208.654 66.1001C213.656 69.9433 217.883 74.7116 221.101 80.1519C224.659 86.1665 226.902 92.8662 227.685 99.8102C228.467 106.754 227.77 113.785 225.639 120.44C223.509 127.096 219.993 133.224 215.324 138.423C210.655 143.622 204.937 147.773 198.548 150.604C192.159 153.434 185.243 154.88 178.255 154.845C171.268 154.811 164.366 153.297 158.005 150.404C152.252 147.786 147.059 144.094 142.702 139.531C141.94 138.733 140.679 138.649 139.85 139.379Z" fill="white"/>
<path d="M156.006 69.98C155.471 69.1415 154.356 68.8922 153.54 69.4607C147.199 73.8795 142.126 79.8998 138.847 86.9222C135.314 94.4892 134.01 102.906 135.088 111.188C136.167 119.469 139.583 127.271 144.936 133.681C150.29 140.091 157.359 144.842 165.315 147.378C173.272 149.915 181.787 150.132 189.862 148.003C197.938 145.875 205.239 141.489 210.912 135.36C216.584 129.231 220.393 121.612 221.891 113.397C223.282 105.772 222.629 97.9266 220.015 90.653C219.679 89.7173 218.625 89.275 217.704 89.6493C216.783 90.0236 216.343 91.0727 216.676 92.0097C219.034 98.6481 219.616 105.799 218.349 112.751C216.973 120.293 213.477 127.287 208.269 132.914C203.061 138.541 196.358 142.567 188.944 144.521C181.531 146.475 173.714 146.276 166.409 143.948C159.105 141.619 152.615 137.257 147.7 131.373C142.785 125.488 139.649 118.325 138.659 110.723C137.669 103.12 138.866 95.3925 142.11 88.4456C145.099 82.0434 149.712 76.5484 155.478 72.4996C156.291 71.9282 156.54 70.8184 156.006 69.98Z" fill="white"/>
<path d="M155.529 81.9245C154.921 81.3048 153.923 81.2927 153.332 81.928C150.429 85.047 148.128 88.6818 146.55 92.6495C144.779 97.1044 143.959 101.881 144.142 106.671C144.325 111.462 145.508 116.162 147.615 120.468C149.722 124.775 152.706 128.593 156.375 131.678C160.045 134.764 164.319 137.048 168.923 138.384C173.528 139.719 178.361 140.078 183.112 139.436C187.863 138.794 192.427 137.165 196.512 134.655C200.149 132.419 203.335 129.528 205.909 126.133C206.434 125.442 206.25 124.461 205.536 123.968C204.821 123.476 203.845 123.659 203.318 124.349C200.994 127.384 198.131 129.971 194.866 131.977C191.155 134.258 187.008 135.738 182.691 136.321C178.374 136.905 173.983 136.579 169.799 135.365C165.616 134.151 161.732 132.076 158.398 129.273C155.064 126.47 152.352 123 150.438 119.087C148.524 115.174 147.449 110.904 147.282 106.551C147.116 102.198 147.861 97.8586 149.471 93.8108C150.887 90.2503 152.944 86.9848 155.535 84.1745C156.123 83.5365 156.136 82.5441 155.529 81.9245Z" fill="white"/>
<path fill-rule="evenodd" clip-rule="evenodd" d="M204.337 37.6566C235.428 43.5952 243.149 65.8675 240.995 79.8662C255.005 44.8405 235.55 31.5677 215.903 18.1644C210.479 14.4641 205.04 10.7538 200.287 6.57306L194.562 0.847637L194.562 0.847595V84.7689C190.099 81.1914 184.434 79.0515 178.269 79.0515C163.872 79.0515 152.201 90.7225 152.201 105.119C152.201 119.516 163.872 131.187 178.269 131.187C192.666 131.187 204.337 119.516 204.337 105.119L204.337 105.085V37.6566ZM164.113 90.6787C163.697 90.2547 163.014 90.2462 162.611 90.6825C160.813 92.6303 159.386 94.8943 158.405 97.3632C157.29 100.166 156.774 103.17 156.889 106.184C157.005 109.197 157.749 112.153 159.074 114.862C160.399 117.571 162.276 119.973 164.585 121.914C166.893 123.855 169.582 125.292 172.478 126.132C175.374 126.972 178.414 127.198 181.403 126.794C184.392 126.39 187.263 125.366 189.832 123.786C192.096 122.395 194.081 120.601 195.691 118.495C196.052 118.023 195.926 117.352 195.437 117.015C194.948 116.678 194.281 116.804 193.918 117.273C192.48 119.133 190.715 120.72 188.706 121.954C186.392 123.376 183.807 124.299 181.115 124.663C178.424 125.027 175.686 124.823 173.077 124.067C170.469 123.31 168.047 122.016 165.969 120.268C163.89 118.52 162.199 116.357 161.006 113.917C159.812 111.478 159.142 108.815 159.038 106.101C158.934 103.387 159.399 100.682 160.403 98.1578C161.274 95.9675 162.534 93.9562 164.119 92.2199C164.52 91.7814 164.529 91.1026 164.113 90.6787ZM188.589 114.684C188.202 115.102 187.546 115.076 187.158 114.659C186.77 114.242 186.798 113.592 187.179 113.169C188.035 112.219 188.73 111.134 189.235 109.955C189.876 108.459 190.198 106.845 190.178 105.218C190.159 103.591 189.8 101.986 189.124 100.505C188.447 99.0251 187.469 97.7026 186.251 96.6228C185.034 95.543 183.604 94.7297 182.053 94.2352C180.503 93.7406 178.866 93.5757 177.248 93.751C175.63 93.9263 174.067 94.4379 172.659 95.2531C171.548 95.8958 170.553 96.7159 169.713 97.6788C169.338 98.1078 168.696 98.2127 168.236 97.8775C167.775 97.5422 167.671 96.8943 168.04 96.4603C169.054 95.2675 170.266 94.2547 171.625 93.468C173.283 92.5088 175.122 91.9067 177.026 91.7004C178.93 91.4942 180.856 91.6882 182.68 92.2702C184.505 92.8521 186.187 93.8091 187.62 95.0797C189.053 96.3503 190.204 97.9064 190.999 99.6482C191.795 101.39 192.218 103.279 192.241 105.194C192.263 107.108 191.886 109.007 191.131 110.767C190.513 112.211 189.652 113.535 188.589 114.684Z" fill="white"/>
</svg>
