<svg width="35" height="20" viewBox="0 0 35 20" fill="none" xmlns="http://www.w3.org/2000/svg">
<g id="Group 20">
<path id="Exclude" fill-rule="evenodd" clip-rule="evenodd" d="M20.623 3C20.6231 3 20.6232 3 20.6233 3L26 3V5H20.623H20.6227C20.102 4.99984 19.5867 5.10106 19.1064 5.29756C18.6262 5.49404 18.1907 5.78176 17.8246 6.14363L17.8242 6.1441L9.58215 14.2804L9.58178 14.2808C8.46405 15.3831 6.95149 16 5.37707 16H5.37705H0V14H5.37702C5.37703 14 5.37704 14 5.37705 14C6.42948 14 7.43632 13.5875 8.17709 12.8571C8.17718 12.857 8.17728 12.8569 8.17737 12.8568C8.1774 12.8568 8.17743 12.8568 8.17745 12.8568L16.4186 4.72126C16.9717 4.17457 17.6278 3.74159 18.3491 3.44648C19.0704 3.15142 19.843 2.9998 20.623 3C20.623 3 20.623 3 20.623 3ZM5.37705 5H0V3H5.37705C6.95135 3 8.46354 3.61648 9.58087 4.72059C9.58095 4.72067 9.58103 4.72075 9.58112 4.72084C9.58119 4.72091 9.58127 4.72099 9.58134 4.72106L17.8229 12.856L17.8229 12.8561C18.563 13.5867 19.5695 13.9996 20.6217 14C20.6218 14 20.6219 14 20.622 14H26V16H20.6217L20.6214 16C19.0471 15.9995 17.5349 15.3821 16.4179 14.2794L8.17589 6.14398L8.17542 6.14351C7.43565 5.41234 6.42976 5 5.37705 5Z" fill="#232F32" fill-opacity="0.7"/>
<path id="Vector" d="M27.6835 6.83884V0.613417C27.6835 0.138509 28.2678 -0.155728 28.7282 0.0868886L34.6321 3.1996C34.735 3.25379 34.8203 3.33076 34.8796 3.42295C34.9388 3.51515 34.9699 3.61941 34.9699 3.72549C34.9699 3.83157 34.9388 3.93582 34.8796 4.02802C34.8203 4.12022 34.735 4.19718 34.6321 4.25137L28.7282 7.36408C28.6234 7.41952 28.5038 7.44936 28.3817 7.45055C28.2596 7.45174 28.1394 7.42424 28.0332 7.37085C27.927 7.31747 27.8387 7.24011 27.7773 7.14665C27.7159 7.05319 27.6835 6.94699 27.6835 6.83884ZM27.6835 18.4534V12.2293C27.6835 11.7544 28.2678 11.4602 28.7282 11.7028L34.6321 14.8155C34.735 14.8697 34.8203 14.9466 34.8796 15.0388C34.9388 15.131 34.9699 15.2353 34.9699 15.3414C34.9699 15.4475 34.9388 15.5517 34.8796 15.6439C34.8203 15.7361 34.735 15.8131 34.6321 15.8673L28.7282 18.98C28.6232 19.035 28.5036 19.0645 28.3816 19.0655C28.2595 19.0664 28.1394 19.0387 28.0333 18.9853C27.9272 18.9318 27.839 18.8545 27.7776 18.7611C27.7161 18.6677 27.6837 18.5615 27.6835 18.4534Z" fill="#232F32" fill-opacity="0.7"/>
</g>
</svg>
